<svg xmlns="http://www.w3.org/2000/svg" xmlns:xlink="http://www.w3.org/1999/xlink" viewBox="0 0 100 125" version="1.1" x="0px" y="0px"><title>8</title><desc>Created with Sketch.</desc><g stroke="none" stroke-width="1" fill="none" fill-rule="evenodd"><g fill="#000000"><path d="M71.1182699,57.07928 L30.8284636,57.07928 C29.7592836,57.07928 28.8922449,57.9469157 28.8922449,59.0172645 C28.8922449,71.2038924 38.797746,81.1184273 50.9734636,81.1184273 C63.1489875,81.1184273 73.0544886,71.2038924 73.0544886,59.0172645 C73.0544886,57.9469157 72.1874499,57.07928 71.1182699,57.07928 M50.4918679,95.7420707 C29.1971412,95.7420707 11.8724374,78.4015668 11.8724374,57.0874196 C11.8724374,42.0982723 20.4891913,28.5391637 33.9457175,22.1517606 C33.9478474,22.1540862 33.9497836,22.1560242 33.9521071,22.1583498 C34.0678929,22.2823808 34.185615,22.4050552 34.3064351,22.5259854 C34.4425513,22.6622258 34.5807973,22.7953653 34.7209795,22.9254041 C34.7839066,22.9837374 34.8483827,23.0393575 34.9118907,23.0963343 C34.9899203,23.1664893 35.0675626,23.238001 35.146754,23.3064118 C35.2218793,23.3711405 35.2987472,23.4327684 35.3748405,23.4959467 C35.4443508,23.5536986 35.5130866,23.613001 35.5833713,23.6693963 C35.6594647,23.730249 35.7371071,23.7883885 35.8137813,23.8476909 C35.8860023,23.9035048 35.9576424,23.9606754 36.0306378,24.0151327 C36.1057631,24.0713343 36.1828246,24.1248227 36.258918,24.1796676 C36.3348178,24.2343188 36.4099431,24.2901327 36.4866173,24.3434273 C36.565615,24.3982723 36.6459681,24.4504041 36.7257403,24.5036986 C36.8008656,24.5540862 36.8752164,24.6056366 36.9509226,24.6546676 C37.031082,24.7064118 37.1118223,24.755249 37.192369,24.8056366 C37.2698178,24.8536986 37.3462984,24.9031172 37.4241344,24.9500165 C37.5027449,24.9974971 37.5825171,25.0422645 37.6617084,25.0883885 C37.7424487,25.1352878 37.8226082,25.1833498 37.9039294,25.2290862 C37.9837016,25.2740475 38.0646355,25.3164893 38.1451822,25.360094 C38.2268907,25.40428 38.3080182,25.4496289 38.3903075,25.4926521 C38.4702733,25.5345126 38.5514009,25.5740475 38.631754,25.6147451 C38.7155923,25.6569932 38.7984624,25.7002103 38.8826879,25.7411017 C38.9622665,25.7800552 39.0426196,25.8164893 39.1225854,25.8540862 C39.2085535,25.8943963 39.2939408,25.9358692 39.3799089,25.9748227 C39.4610364,26.0116444 39.5427449,26.0463343 39.6240661,26.0817994 C39.7098405,26.1193963 39.7952278,26.1577684 39.8811959,26.1940087 C39.9625171,26.228311 40.0442255,26.2604816 40.1255467,26.2936211 C40.2126765,26.3290862 40.2996128,26.3655203 40.3871298,26.3996289 C40.4657403,26.4306366 40.5445444,26.4593188 40.6233485,26.4891637 C40.7143508,26.5236599 40.8049658,26.5587374 40.8957745,26.5918769 C40.9736105,26.6201715 41.0516401,26.6465281 41.1294761,26.6740475 C41.2218337,26.7064118 41.3139977,26.7395513 41.4061617,26.7707529 C41.4841913,26.7969157 41.5624146,26.8215281 41.6404442,26.8469157 C41.7329954,26.8771482 41.8255467,26.9079622 41.9182916,26.937032 C41.9949658,26.9608692 42.0718337,26.983156 42.1483144,27.006218 C42.2428018,27.0347064 42.3372893,27.0639699 42.4315831,27.0911017 C42.5072893,27.113001 42.5826082,27.133156 42.6581207,27.1540862 C42.7537699,27.1806366 42.8492255,27.2077684 42.9446811,27.2333498 C43.0203872,27.2535048 43.0960934,27.2719157 43.1717995,27.2914893 C43.2670615,27.3157141 43.3621298,27.3407141 43.4570046,27.3639699 C43.5323235,27.3823808 43.6074487,27.3994351 43.682574,27.4170707 C43.777836,27.4395513 43.8730979,27.4624196 43.9683599,27.4837374 C44.0427107,27.5005978 44.1168679,27.5159079 44.1916059,27.5317994 C44.2868679,27.5525358 44.3821298,27.5734661 44.4773918,27.5930397 C44.551549,27.608156 44.6251253,27.6219157 44.6990888,27.6364506 C44.7939636,27.6550552 44.8890319,27.6742413 44.983713,27.6918769 C45.0567084,27.7056366 45.1293166,27.7178459 45.2021185,27.7310242 C45.2971868,27.7478847 45.3924487,27.7653265 45.4871298,27.781218 C45.5585763,27.7932335 45.6294419,27.8040862 45.7006948,27.8157141 C45.7957631,27.8310242 45.8912187,27.8467219 45.9858998,27.861063 C46.0563781,27.8719157 46.1262756,27.8814118 46.1963667,27.8916831 C46.2912415,27.905249 46.3861162,27.9193963 46.48041,27.932187 C46.549533,27.9414893 46.6176879,27.9498227 46.6866173,27.9587374 C46.7805239,27.9709467 46.8748178,27.9833498 46.9683371,27.9945901 C47.036492,28.0029234 47.1040661,28.010094 47.1720273,28.0178459 C47.2653531,28.0285048 47.3588724,28.0393575 47.4514237,28.0492413 C47.5158998,28.0558304 47.5796014,28.0618382 47.6436902,28.0682335 C47.7383713,28.0777296 47.8334396,28.0874196 47.9273462,28.0959467 C47.9898861,28.1017606 48.0516515,28.1064118 48.1141913,28.1118382 C48.2077107,28.1199777 48.3016173,28.1281172 48.3943622,28.1352878 C48.4567084,28.1401327 48.5182802,28.1442025 48.5798519,28.1486599 C48.6716287,28.155249 48.7632118,28.1622258 48.8536333,28.1680397 C48.913656,28.1719157 48.9721298,28.1750165 49.0313781,28.1785048 C49.1227677,28.1839312 49.2143508,28.1895513 49.3045786,28.1943963 C49.361697,28.1973033 49.4176538,28.1994351 49.4741913,28.202342 C49.5485421,28.2058304 49.6236674,28.2097064 49.6970501,28.2126134 C50.2055011,28.2647451 51.1858087,28.3438149 52.4608087,28.3438149 C53.8405581,28.3438149 55.5622437,28.2500165 57.3933257,27.9300552 C57.4039749,27.9281172 57.4148178,27.926373 57.4256606,27.9246289 C57.650262,27.8849002 57.8762187,27.8420707 58.1037244,27.7953653 C58.1784624,27.7800552 58.2526196,27.7639699 58.3269704,27.7480785 C58.4520501,27.7211405 58.5775171,27.6930397 58.7029841,27.6637761 C58.9517882,27.6064118 59.1969134,27.5453653 59.4385535,27.4808304 C59.4430068,27.4798614 59.4474601,27.4786986 59.4517198,27.4775358 C61.5767198,26.9093188 63.4240661,26.0680397 64.9794305,24.9614506 C65.0257062,24.9288924 65.0715945,24.8967219 65.1172893,24.8633885 C65.2148747,24.7920707 65.3111048,24.7197839 65.4061731,24.6465281 C65.4756834,24.5932335 65.5444191,24.5387761 65.6131549,24.4839312 C65.6921526,24.4205591 65.7711503,24.357187 65.8485991,24.2924583 C65.9376651,24.2178459 66.0251822,24.1409079 66.1128929,24.0637761 C66.1709795,24.0124196 66.2300342,23.962032 66.2871526,23.9097064 C66.4315945,23.7777296 66.5742938,23.6426521 66.7138952,23.5027296 C66.7144761,23.502342 66.7148633,23.5019544 66.7152506,23.5015668 L66.7154442,23.501373 L66.7154442,23.501373 L66.7154442,23.501373 C66.8709226,23.3457529 67.020205,23.1864506 67.1660023,23.0248227 C67.181492,23.0077684 67.1971754,22.9911017 67.2122779,22.9740475 C67.3594305,22.8095126 67.5013554,22.6420707 67.6388269,22.4719157 C67.6442483,22.4651327 67.6500569,22.4587374 67.655672,22.4519544 C80.7416059,28.9569932 89.1112984,42.3819932 89.1112984,57.0874196 C89.1112984,78.4015668 71.7865945,95.7420707 50.4918679,95.7420707 M32.5115604,3.92346607 C33.707369,3.86145056 35.5016629,3.84013273 37.5344989,4.05428002 C43.4591344,4.67792343 46.6887472,6.79691568 48.3550569,8.46455134 C49.173303,9.28373738 49.8926082,10.2606754 50.5011617,11.3779234 C50.4845103,11.4038924 50.4690205,11.4306366 50.452369,11.4566056 C50.3997039,11.5397451 50.3482005,11.6232723 50.2972779,11.7069932 C50.2705581,11.7507916 50.2440319,11.7947839 50.2180866,11.8387761 C50.1634852,11.9310242 50.1100456,12.0236599 50.0577677,12.1166831 C50.0384055,12.1507916 50.0188497,12.1847064 49.9996811,12.2190087 C49.9288155,12.3467219 49.8598861,12.4752103 49.7928929,12.60428 C49.7828246,12.6236599 49.7733371,12.6432335 49.7632688,12.6626134 C49.7065376,12.7730785 49.6509681,12.884125 49.5969476,12.9955591 C49.577779,13.035094 49.5591913,13.0750165 49.54041,13.1145513 C49.4954897,13.2085436 49.4517312,13.3029234 49.4087472,13.3976909 C49.3903531,13.4383885 49.371959,13.4794738 49.3535649,13.5203653 C49.3090319,13.6213343 49.2652733,13.7224971 49.2224829,13.8238537 C49.209123,13.8554428 49.1955695,13.8868382 49.1822096,13.9186211 C49.0691344,14.1914893 48.9630296,14.4661017 48.8638952,14.7416831 C48.8567312,14.7612568 48.8499544,14.7810242 48.8427904,14.8005978 C48.8007745,14.9192025 48.7597267,15.038001 48.7200342,15.1567994 C48.7109339,15.1837374 48.7018337,15.2106754 48.6929271,15.2378072 C48.6540091,15.3560242 48.6160592,15.4744351 48.5794647,15.5930397 C48.5732688,15.6124196 48.5672665,15.6317994 48.5610706,15.6511792 C48.4299886,16.07928 48.3138155,16.5075746 48.2113895,16.9335436 C48.2102278,16.9385823 48.2088724,16.9432335 48.2077107,16.9482723 C48.1740205,17.0885823 48.1418793,17.2286986 48.1110934,17.3682335 C48.1105125,17.3709467 48.1099317,17.3738537 48.1093508,17.3765668 C47.5381663,19.9721095 47.4549089,22.4391637 47.4992483,24.1554428 C47.4810478,24.1535048 47.463041,24.1509854 47.4452278,24.1488537 C47.2630296,24.1271482 47.0798633,24.1035048 46.8953417,24.0779234 C46.8620387,24.0732723 46.8289294,24.0690087 46.79582,24.0643575 C46.5977449,24.036063 46.3983144,24.005249 46.1981093,23.9721095 C46.1588041,23.9657141 46.1194989,23.9589312 46.0801936,23.9521482 C45.6671982,23.882187 45.2505239,23.8011792 44.8324943,23.7079622 C44.7929954,23.6992413 44.7536902,23.6905203 44.7141913,23.6814118 C44.5097267,23.6349002 44.3050683,23.5854816 44.10041,23.5329622 C44.0688497,23.5248227 44.0372893,23.5161017 44.0057289,23.5077684 C43.8123007,23.457187 43.6188724,23.4036986 43.4258314,23.3473033 C43.4014351,23.3401327 43.3770387,23.3335436 43.3526424,23.3261792 C43.1479841,23.2657141 42.9442938,23.2009854 42.7407973,23.1337374 C42.7001367,23.1201715 42.6594761,23.1064118 42.6188155,23.0926521 C42.4133827,23.0232723 42.2087244,22.9507916 42.0052278,22.8738537 C41.9920615,22.8690087 41.9787016,22.8635823 41.9657289,22.8585436 C41.7717198,22.7847064 41.5794533,22.7067994 41.3877677,22.6259854 C41.3511731,22.6104816 41.314385,22.5953653 41.2777904,22.5794738 C41.0820387,22.4951715 40.887836,22.407187 40.6951822,22.3151327 C40.6591686,22.2978847 40.6233485,22.2800552 40.5873349,22.2624196 C40.4010706,22.1717219 40.216549,22.0781172 40.0339636,21.9798614 C40.0198292,21.9721095 40.0053075,21.9649389 39.9909795,21.957187 C39.8010364,21.8538924 39.6136105,21.7453653 39.4283144,21.6335436 C39.38959,21.610094 39.3510592,21.5866444 39.3125285,21.563001 C39.1293622,21.4502103 38.9485194,21.3337374 38.7705809,21.212032 C38.7475399,21.1959467 38.7246925,21.1790862 38.7012642,21.163001 C38.5370729,21.0488537 38.375205,20.930249 38.2160478,20.808156 C38.1868109,20.7858692 38.1571868,20.7639699 38.1283371,20.7414893 C37.9593052,20.6095126 37.7939522,20.4723033 37.631697,20.3308304 C37.5980068,20.3017606 37.5648975,20.2719157 37.5317882,20.2422645 C37.3660478,20.0943963 37.2028246,19.9434273 37.0448292,19.7852878 C36.9212984,19.6614506 36.8024146,19.534125 36.6850797,19.4056366 C36.6502278,19.3672645 36.6151822,19.3288924 36.5805239,19.2895513 C36.4753872,19.1713343 36.372574,19.0511792 36.2726651,18.9290862 C36.2321982,18.8794738 36.1925057,18.828311 36.152426,18.7777296 C32.4658656,14.1248227 32.3556948,7.02501645 32.5115604,3.92346607 M67.6539294,8.16009397 C67.7484169,10.5899389 67.6006834,15.3794738 65.3920387,18.9558304 C65.3854556,18.9659079 65.3780979,18.9752103 65.3717084,18.9856754 C65.2727677,19.1449777 65.1701481,19.3002103 65.0648178,19.4517606 C65.0539749,19.4670707 65.0431321,19.4823808 65.0322893,19.4976909 C64.9407062,19.6279234 64.8464123,19.7544738 64.7503759,19.878311 C64.7281093,19.9067994 64.7064237,19.9354816 64.6841572,19.9635823 C64.5954784,20.0754041 64.5044761,20.1833498 64.4125057,20.2893575 C64.3859795,20.3197839 64.360615,20.3511792 64.3337016,20.3814118 C64.2202392,20.5087374 64.1046469,20.6323808 63.986344,20.7509854 C63.983246,20.75428 63.9801481,20.7575746 63.9770501,20.7606754 L63.9770501,20.7606754 C63.8659112,20.8719157 63.7514806,20.9806366 63.6337585,21.087032 C63.574123,21.1409079 63.512164,21.1914893 63.4515604,21.2436211 C63.3928929,21.2940087 63.3357745,21.3451715 63.2755581,21.3943963 C63.1977221,21.458156 63.117369,21.5186211 63.0377904,21.5798614 C62.9924829,21.6145513 62.9487244,21.6504041 62.9026424,21.6843188 C62.8158998,21.7484661 62.727221,21.8097064 62.6387358,21.8711405 C62.5974943,21.8996289 62.5574146,21.9290862 62.5157859,21.957187 C62.4238155,22.0188149 62.3304897,22.0777296 62.2369704,22.1364506 C62.1959226,22.1622258 62.1558428,22.1885823 62.1144077,22.2139699 C62.0189522,22.2721095 61.9223349,22.3279234 61.8253303,22.383156 C61.783508,22.4069932 61.7422665,22.431218 61.7000569,22.4546676 C61.6013098,22.5093188 61.5015945,22.562032 61.4016856,22.6137761 C61.3588952,22.6356754 61.316492,22.6579622 61.273508,22.6796676 C61.1714692,22.7308304 61.0692369,22.7804428 60.9662301,22.8288924 C60.9228588,22.8492413 60.8789066,22.8692025 60.8353417,22.8893575 C60.7303986,22.937032 60.625262,22.9839312 60.5191572,23.0290862 C60.4763667,23.0473033 60.4329954,23.0647451 60.3898178,23.0827684 C60.2802278,23.1281172 60.1704442,23.1730785 60.0598861,23.2155203 C60.0376196,23.2242413 60.0145786,23.232187 59.9919248,23.2407141 C59.7878474,23.3180397 59.582221,23.3899389 59.37582,23.4583498 C59.2991458,23.4835436 59.2236333,23.509125 59.1457973,23.5335436 C59.067574,23.558156 58.9887699,23.581218 58.9101595,23.6046676 C58.8135421,23.633156 58.7167312,23.6616444 58.6183713,23.6889699 C58.5500228,23.7079622 58.4818679,23.7265668 58.4135194,23.7447839 C58.2812756,23.7798614 58.1474829,23.8137761 58.0121412,23.8463343 C57.9751595,23.8550552 57.9387585,23.8647451 57.9019704,23.8734661 C57.7207403,23.9157141 57.5369932,23.9560242 57.3503417,23.9942025 C57.323041,23.9998227 57.2959339,24.0048614 57.2684396,24.0102878 C57.1044419,24.0432335 56.9383144,24.0742413 56.7702506,24.1036986 C56.733656,24.110094 56.6974487,24.1166831 56.6610478,24.1226909 C56.4747836,24.15428 56.2867768,24.184125 56.0954784,24.2116444 C56.0251936,24.2217219 55.9556834,24.2304428 55.8855923,24.2399389 C55.8067882,24.2505978 55.7281777,24.261063 55.6501481,24.2707529 C55.5372665,24.2847064 55.4251595,24.2976909 55.3136333,24.3099002 C55.2890433,24.3126134 55.2646469,24.3153265 55.2402506,24.3178459 C53.7286446,24.4775358 52.3665148,24.4790862 51.3881435,24.4409079 C51.3709112,23.9965281 51.3616173,23.4728847 51.3716856,22.8924583 C51.3718793,22.8866444 51.3718793,22.8810242 51.3718793,22.8752103 C51.3736219,22.7823808 51.3759453,22.6872258 51.3788497,22.5916831 C51.3796241,22.5639699 51.3800114,22.5372258 51.3809795,22.509125 C51.383303,22.4257916 51.3871754,22.3399389 51.390467,22.2544738 C51.3920159,22.2133885 51.3933713,22.1732723 51.3953075,22.1317994 C51.3987927,22.0577684 51.4030524,21.9816056 51.4071185,21.9060242 C51.4098292,21.8507916 51.4125399,21.7959467 51.4158314,21.7401327 C51.4197039,21.6746289 51.4245444,21.6075746 51.4291913,21.5411017 C51.4336446,21.4736599 51.4380979,21.4067994 51.4429385,21.3383885 C51.4475854,21.2798614 51.4528132,21.2201715 51.4574601,21.1608692 C51.4640433,21.0827684 51.4704328,21.0048614 51.4775968,20.9259854 C51.4822437,20.8736599 51.4880524,20.8203653 51.4930866,20.7676521 C51.5016059,20.6808304 51.5101253,20.5940087 51.5196128,20.5060242 C51.5250342,20.4579622 51.5308428,20.4093188 51.5364579,20.361063 C51.5473007,20.2670707 51.5581435,20.1728847 51.5701481,20.0781172 C51.5759567,20.0347064 51.581959,19.9909079 51.5877677,19.9473033 C51.6011276,19.8463343 51.6148747,19.7449777 51.6299772,19.6430397 C51.6353986,19.6044738 51.6417882,19.5657141 51.6477904,19.5271482 C51.6640547,19.4193963 51.6808998,19.3112568 51.6991002,19.2027296 C51.7049089,19.1682335 51.7111048,19.1337374 51.7171071,19.0992413 C51.7366629,18.9862568 51.7566059,18.8728847 51.7782916,18.7593188 C51.7841002,18.7275358 51.7906834,18.6957529 51.7968793,18.6639699 C51.819533,18.5471095 51.8431549,18.4298614 51.8679385,18.3124196 C51.874328,18.2835436 51.8809112,18.2544738 51.8871071,18.2255978 C51.9134396,18.1050552 51.9403531,17.9845126 51.9692027,17.8635823 C51.9753986,17.8374196 51.9821754,17.8108692 51.9883713,17.7847064 C52.0183827,17.6614506 52.0493622,17.5383885 52.0818907,17.4151327 C52.0884738,17.3901327 52.0954442,17.3653265 52.102221,17.3403265 C52.1359112,17.2157141 52.1705695,17.0912955 52.2069704,16.9670707 C52.2141344,16.9430397 52.221492,16.9193963 52.228656,16.8955591 C52.2658314,16.7707529 52.3043622,16.6461405 52.3446355,16.5219157 C52.352574,16.4978847 52.3607062,16.4736599 52.3686446,16.4494351 C52.4094989,16.3257916 52.4517084,16.202342 52.4958542,16.07928 C52.5045672,16.0550552 52.5134738,16.0308304 52.5221868,16.0066056 C52.5669134,15.8843188 52.6126082,15.7624196 52.6604328,15.6411017 C52.6705011,15.6161017 52.6807631,15.5911017 52.6906378,15.5661017 C52.738656,15.4465281 52.787836,15.3275358 52.8393394,15.2093188 C52.8509567,15.1823808 52.8629613,15.1554428 52.8749658,15.1285048 C52.9256948,15.013001 52.9781663,14.8982723 53.032574,14.784125 C53.0465148,14.7546676 53.0610364,14.7255978 53.0751708,14.6963343 C53.1288041,14.5856754 53.1837927,14.4759854 53.2409112,14.3668769 C53.2577563,14.3347064 53.2749886,14.3029234 53.2920273,14.2707529 C53.3477904,14.1661017 53.4051025,14.0624196 53.4641572,13.9593188 C53.4848747,13.9234661 53.5057859,13.8878072 53.5268907,13.8519544 C53.5842027,13.7546676 53.6428702,13.6579622 53.7030866,13.5624196 C53.728451,13.5221095 53.7543964,13.4823808 53.7799544,13.4422645 C53.838041,13.3531172 53.8970957,13.2645513 53.9575057,13.1767606 C53.9890661,13.1317994 54.0206264,13.087032 54.052574,13.0426521 C54.1098861,12.9624196 54.1681663,12.8829622 54.2279954,12.8044738 C54.4845444,12.4670707 54.7618109,12.1436211 55.0648292,11.8403265 C58.6284396,8.27346607 64.7869704,8.04827227 67.6539294,8.16009397 M69.6674032,19.127342 C72.288656,13.2693963 71.4280068,6.456218 71.3796014,6.0945901 C71.2638155,5.22831103 70.583041,4.54691568 69.7173576,4.43083041 C69.2795786,4.37191568 59.3793052,3.1192025 53.1793394,8.3190087 C52.557426,7.36358235 51.8621298,6.49362111 51.0932574,5.72385366 C43.8796811,-1.49610758 31.0024715,0.134512578 30.4576196,0.207574594 C29.5921298,0.323659865 28.9111617,1.00505521 28.7951822,1.87133428 C28.7334169,2.33509397 27.5465148,11.728311 31.6313554,18.9682335 C17.2022665,26.1205591 8,40.8403265 8,57.0874196 C8,68.4476909 12.42,79.1281172 20.4456264,87.161063 C28.4714465,95.1940087 39.1419476,99.6180397 50.4918679,99.6180397 C61.8417882,99.6180397 72.5124829,95.1940087 80.538303,87.161063 C88.5639294,79.1281172 92.9837358,68.4478847 92.9837358,57.0874196 C92.9837358,41.0170707 83.8972551,26.3378072 69.6674032,19.127342 M38.8242722,53.0518188 C41.6232699,53.0518188 43.9006503,50.7725552 43.9006503,47.970811 C43.9006503,45.1690668 41.6232699,42.8896095 38.8242722,42.8896095 C36.0250809,42.8896095 33.7477005,45.1690668 33.7477005,47.970811 C33.7477005,50.7725552 36.0250809,53.0518188 38.8242722,53.0518188 M62.1596765,53.0518188 C64.9586743,53.0518188 67.2360547,50.7725552 67.2360547,47.970811 C67.2360547,45.1690668 64.9586743,42.8896095 62.1596765,42.8896095 C59.3606788,42.8896095 57.0832984,45.1690668 57.0832984,47.970811 C57.0832984,50.7725552 59.3606788,53.0518188 62.1596765,53.0518188"/></g></g></svg>
